<?xml version="1.0" encoding="UTF-8"?>
<svg id="Layer_1" data-name="Layer 1" xmlns="http://www.w3.org/2000/svg" width="464" height="568" viewBox="0 0 464 568">
  <defs>
    <style>
      .cls-1 {
        fill: none;
        stroke: #000;
        stroke-miterlimit: 10;
        stroke-width: 11px;
      }
    </style>
  </defs>
  <path d="M241,300c35.84,0,65,29.16,65,65s-29.16,65-65,65-65-29.16-65-65,29.16-65,65-65m0-14c-43.63,0-79,35.37-79,79s35.37,79,79,79,79-35.37,79-79-35.37-79-79-79h0Z"/>
  <path d="M241,11c22.61,0,41,18.39,41,41s-18.39,41-41,41-41-18.39-41-41,18.39-41,41-41m0-11c-28.72,0-52,23.28-52,52s23.28,52,52,52,52-23.28,52-52S269.72,0,241,0h0Z"/>
  <line class="cls-1" x1="241" y1="100" x2="241.5" y2="290.5"/>
  <path d="M412,324c22.61,0,41,18.39,41,41s-18.39,41-41,41-41-18.39-41-41,18.39-41,41-41m0-11c-28.72,0-52,23.28-52,52s23.28,52,52,52,52-23.28,52-52-23.28-52-52-52h0Z"/>
  <line class="cls-1" x1="367" y1="365" x2="315.74" y2="365.23"/>
  <path d="M52,475c22.61,0,41,18.39,41,41s-18.39,41-41,41-41-18.39-41-41,18.39-41,41-41m0-11c-28.72,0-52,23.28-52,52s23.28,52,52,52,52-23.28,52-52-23.28-52-52-52h0Z"/>
  <line class="cls-1" x1="189" y1="406" x2="91" y2="485"/>
  <path d="M65,193c22.61,0,41,18.39,41,41s-18.39,41-41,41-41-18.39-41-41,18.39-41,41-41m0-11c-28.72,0-52,23.28-52,52s23.28,52,52,52,52-23.28,52-52-23.28-52-52-52h0Z"/>
  <line class="cls-1" x1="178.5" y1="318.5" x2="104" y2="263"/>
</svg>